<?xml version="1.0" encoding="UTF-8"?>
<!DOCTYPE svg  PUBLIC '-//W3C//DTD SVG 1.1//EN'  'http://www.w3.org/Graphics/SVG/1.1/DTD/svg11.dtd'>
<svg clip-rule="evenodd" fill-rule="evenodd" stroke-linecap="round" stroke-linejoin="round" stroke-miterlimit="1.5" version="1.1" viewBox="0 0 521 189" xml:space="preserve" xmlns="http://www.w3.org/2000/svg">
        <g transform="matrix(1.0599 0 0 1.0599 -19.483 -8.4642)" fill="#333" fill-rule="nonzero">
            <path d="m182.37 65.406h51.511s-49.747 56.166-51.352 57.772c-1.604 1.604-1.604 4.011-1.604 4.011v4.333c0 0.964 0 2.406 3.369 2.406h62.424c2.567 0 3.532-1.124 3.532-2.246v-5.776c0-1.283-0.643-2.166-2.166-2.166h-50.791s49.266-55.927 50.71-57.851c1.444-1.926 2.24-2.761 2.24-4.688 0-1.925-0.03-2.697-0.03-3.981s-0.5-2.726-2.691-2.726h-59.216l-5.936 10.912z"/>
            <path d="m265.64 54.478c1.928 0 5.313 0.017 6.436 0.017 1.865 0 2.488 0.803 2.488 2.487v55.604c0 3.37 2.316 12.959 12.959 12.959h23.227c6.496 0 12.98-4.331 12.98-12.979v-55.664c0-1.604 0.69-2.087 1.985-2.087 1.293 0 4.934-0.01 7.02-0.01 0.742 0 2.087 0.171 2.087 2.098v52.636c0 10.59-5.854 25.613-24.468 25.613-18.615 0-11.8-0.099-22.392-0.099-14.212 0-24.873-10.109-24.873-26.639 0-16.529 0.016-49.556 0.016-51.322-1e-3 -1.765 1.253-2.614 2.535-2.614z"/>
            <path d="m415.78 135.15c-1.926 0-5.313-0.019-6.438-0.019-1.867 0-2.486-0.802-2.486-2.486v-55.605c0-3.37-2.319-12.959-12.959-12.959h-23.229c-6.495 0-12.979 4.335-12.979 12.98v55.664c0 1.604-0.692 2.085-1.986 2.085-1.295 0-4.935 0.011-7.021 0.011-0.741 0-2.084-0.17-2.084-2.096v-52.636c0-10.59 5.852-25.612 24.468-25.612 18.614 0 11.797 0.096 22.389 0.096 14.215 0 24.874 10.11 24.874 26.641 0 16.528-0.014 49.556-0.014 51.32 0 1.765-1.253 2.616-2.535 2.616z"/>
            <path d="m497.54 61.52c-5.639-5.924-13.966-8.321-21.723-8.321h-17.776c-3.526 0-16.791 0.844-23.703 11.851-6.909 11.002-5.499 24.404-5.499 28.636 0 4.233-1.383 22.95 10.015 33.434 7.054 6.489 16.081 6.914 21.161 6.914h34.142l6.205-9.734h-40.628c-8.464 0-19.466-5.925-19.466-17.917v-8.322h58.119c4.091 0 6.066-1.412 6.066-4.515v-11.849c0-4.094-1.268-14.251-6.913-20.177zm-3.669 25.112h-53.198s0.063-1.708 0.063-5.8c0-9.654 7.143-16.771 18.263-16.771 8.89 0 1.455 0.105 17.819 0.105 13.246 0 17.054 11.111 17.054 15.386-1e-3 1.973-1e-3 7.08-1e-3 7.08z"/>
        </g>
            <path d="M14,51.145L81,93.1L148,51.145L81,9.1L14,51.145Z" fill="none" stroke="url(#a)" stroke-width="12px"/>
            <g transform="translate(0 84)">
                <path d="M14,51.145L81,93.1L148,51.145L81,9.1L14,51.145Z" fill="none" stroke="url(#b)" stroke-width="12px"/>
            </g>
            <path d="m14 135.14l67-126.04v168l67-126" fill="none" stroke="url(#a)" stroke-width="12px"/>
    <defs>
        <linearGradient id="a" x2="1" gradientTransform="matrix(-2.7016e-14 -168 210.63 -3.3871e-14 81 177.1)" gradientUnits="userSpaceOnUse"><stop stop-color="#ee9037" offset="0"/><stop stop-color="#ee8e3e" offset=".1"/><stop stop-color="#ee884f" offset=".26"/><stop stop-color="#ec7d63" offset=".46"/><stop stop-color="#ea6c76" offset=".69"/><stop stop-color="#e6558a" offset=".95"/><stop stop-color="#e64e8d" offset="1"/></linearGradient>
        <linearGradient id="b" x2="1" gradientTransform="matrix(-2.7016e-14 -168 210.63 -3.3871e-14 81 93.1)" gradientUnits="userSpaceOnUse"><stop stop-color="#ee9037" offset="0"/><stop stop-color="#ee8e3e" offset=".1"/><stop stop-color="#ee884f" offset=".26"/><stop stop-color="#ec7d63" offset=".46"/><stop stop-color="#ea6c76" offset=".69"/><stop stop-color="#e6558a" offset=".95"/><stop stop-color="#e64e8d" offset="1"/></linearGradient>
    </defs>
</svg>
