<?xml version="1.0" encoding="UTF-8"?>
<!DOCTYPE svg  PUBLIC '-//W3C//DTD SVG 1.1//EN'  'http://www.w3.org/Graphics/SVG/1.1/DTD/svg11.dtd'>
<svg clip-rule="evenodd" fill-rule="evenodd" stroke-linejoin="round" stroke-miterlimit="2" version="1.1" viewBox="0 0 48 48" xml:space="preserve" xmlns="http://www.w3.org/2000/svg">
    <g transform="matrix(.99189 0 0 .99189 -.092577 .19455)">
        <path d="m30.608 13.95c2.649 2.533 4.299 6.1 4.299 10.05s-1.65 7.517-4.299 10.05l-2.697-2.697c1.958-1.841 3.182-4.455 3.182-7.353s-1.224-5.512-3.182-7.353l2.697-2.697zm-4.608 10.05l-11 8.429v-16.858l11 8.429zm6.739 17.298c-3.347 2.277-7.389 3.609-11.739 3.609-11.539 0-20.907-9.368-20.907-20.907s9.368-20.907 20.907-20.907c4.35 0 8.392 1.332 11.739 3.609l-2.755 2.756c-2.612-1.617-5.69-2.551-8.984-2.551-9.434 0-17.093 7.659-17.093 17.093s7.659 17.093 17.093 17.093c3.294 0 6.372-0.934 8.984-2.551l2.755 2.756zm0.123-4.995c3.224-3.109 5.231-7.474 5.231-12.303s-2.007-9.194-5.231-12.303l2.696-2.697c3.915 3.801 6.349 9.119 6.349 15s-2.434 11.199-6.349 15l-2.696-2.697zm7.347-31.954c5.106 4.991 8.277 11.954 8.277 19.651s-3.171 14.66-8.277 19.651l-2.696-2.696c4.415-4.301 7.159-10.31 7.159-16.955s-2.744-12.654-7.159-16.955l2.696-2.696z" fill="url(#a)"/>
    </g>
    <defs>
        <linearGradient id="a" x2="1" gradientTransform="matrix(44 -44 44 44 .093333 44.907)" gradientUnits="userSpaceOnUse"><stop stop-color="#ee9037" offset="0"/><stop stop-color="#be198d" offset=".5"/><stop stop-color="#0294d0" offset="1"/></linearGradient>
    </defs>
</svg>
